<svg width="16" height="16" viewBox="0 0 16 16" fill="none" xmlns="http://www.w3.org/2000/svg">
<path d="M1.00005 8.03942C1.01539 11.8987 4.20158 15.015 8.1293 14.9999C8.90871 14.9999 9.66557 14.8662 10.362 14.6351C8.47751 14.0701 7.51588 12.724 7.03957 11.7048C6.97913 11.571 6.92591 11.4444 6.8808 11.3257C6.72925 10.8723 6.54793 10.0169 6.69136 8.70094C6.69858 8.61947 6.71391 8.53711 6.72203 8.45564C6.72203 8.41845 6.72925 8.38125 6.72925 8.35114C6.72925 8.31395 6.72925 8.28384 6.72925 8.24665C6.72925 8.17934 6.72925 8.11293 6.72203 8.04562C6.69136 7.77818 6.5786 7.53288 6.30617 7.27961C6.04095 7.0414 5.74597 6.87845 5.44377 6.69957C5.17855 6.54371 4.95934 6.3728 4.78524 6.18683C4.61113 6.00794 4.48213 5.82286 4.38381 5.62892C4.18715 5.25699 4.13393 4.88505 4.15648 4.55828C4.17181 4.23859 4.26202 3.96318 4.35313 3.76216C4.39824 3.66563 4.44425 3.57619 4.47402 3.51686C4.48123 3.5018 4.48935 3.48675 4.49657 3.47258C4.49657 3.4655 4.50378 3.45753 4.50378 3.45753C4.50378 3.45044 4.511 3.44247 4.511 3.44247C4.511 3.44247 4.511 3.43539 4.51822 3.43539C4.51822 3.43539 4.51822 3.4283 4.52543 3.4283C4.52543 3.42122 4.53265 3.42122 4.53265 3.41325V3.42033C4.53265 3.42742 4.52543 3.44247 4.51732 3.45753C4.5101 3.48763 4.49476 3.52483 4.48664 3.56911C4.46409 3.65855 4.45597 3.77013 4.47943 3.90385C4.52453 4.1642 4.70676 4.47681 5.23628 4.72919C5.23628 4.72919 5.23628 4.90011 5.23628 5.07102C5.23628 5.24193 5.2435 5.40576 5.2435 5.40576C5.2435 5.40576 5.26605 5.2499 5.28861 5.09316C5.31116 4.9373 5.34183 4.78055 5.34183 4.78055C5.39505 4.80269 5.45549 4.82483 5.51593 4.84786C5.57637 4.87 5.62148 4.9373 5.62148 5.01877V5.18968C5.62148 5.18968 5.63681 5.1153 5.64403 5.04091C5.65937 4.96652 5.66658 4.89214 5.66658 4.89214C5.72702 4.90719 5.78746 4.92933 5.8479 4.94438C6.4081 5.09316 6.77887 5.25699 7.01341 5.41285C7.24795 5.56162 7.36162 5.7104 7.41484 5.81401C7.52039 5.68029 7.77027 5.52443 8.32325 5.48723C8.32325 5.48723 8.30791 5.56871 8.3007 5.65106C8.28536 5.73253 8.27815 5.81489 8.27815 5.81489C8.27815 5.81489 8.3007 5.76264 8.31603 5.7104C8.33859 5.65815 8.35392 5.6059 8.35392 5.6059C8.38459 5.53151 8.45225 5.48723 8.53524 5.47926C8.58035 5.47926 8.63357 5.47926 8.68679 5.47926C8.68679 5.47926 8.66424 5.59793 8.64891 5.71748C8.64169 5.77681 8.63357 5.83615 8.62635 5.88131C8.61914 5.92559 8.61914 5.9557 8.61914 5.9557C8.61914 5.9557 8.62635 5.92559 8.64981 5.88131C8.66514 5.83703 8.6877 5.77681 8.71025 5.71748C8.75535 5.59881 8.80858 5.47926 8.80858 5.47926C8.92224 5.48635 9.04312 5.49432 9.17212 5.50937C9.63399 5.55365 9.97408 5.54657 10.224 5.51646C10.4738 5.48635 10.6326 5.42702 10.7382 5.36768C10.8437 5.30835 10.8897 5.24105 10.9123 5.20385C10.9123 5.19677 10.9195 5.19677 10.9195 5.1888C10.9195 5.1888 10.9195 5.1888 10.9195 5.18172C10.9195 5.17463 10.9267 5.15958 10.9195 5.15161C10.9195 5.15161 10.9267 5.15161 10.9348 5.16666C10.942 5.17374 10.942 5.18171 10.9501 5.19677C10.9574 5.21891 10.9655 5.2561 10.9727 5.2933C10.988 5.40488 10.9799 5.56871 10.905 5.7467C10.8293 5.92559 10.6931 6.11864 10.4278 6.31169C10.2988 6.40822 10.1401 6.50475 9.93619 6.59419C9.73954 6.69071 9.50499 6.78016 9.22444 6.8696C8.91412 6.97409 8.6038 7.0777 8.33137 7.27873C8.05172 7.47975 7.95339 7.71 7.95339 7.94821C7.95339 8.0226 7.96061 8.0899 7.96873 8.15632C7.98406 8.22362 7.9994 8.28295 8.01383 8.34937C8.11938 8.71334 8.36204 9.04808 8.59658 9.33854C8.92946 9.74767 9.27767 10.0824 9.67098 10.3277C9.67098 10.3277 9.69353 10.3428 9.73954 10.3649C9.89109 10.4544 10.0426 10.5208 10.2014 10.5801C10.7391 10.7962 11.6168 11.0264 12.5478 10.7811C12.555 10.7811 12.555 10.7811 12.5631 10.774C12.7444 10.7218 14.508 10.194 14.9248 7.94821C15.1286 6.84037 14.9094 5.70951 14.3727 4.71325C13.2144 2.57905 10.952 1.09927 8.36384 1.00275C4.31525 0.892936 0.984717 4.0907 1.00005 8.03942ZM9.84689 11.5941C10.0363 11.6614 10.2104 11.7057 10.3845 11.7358C10.5514 11.7659 10.7102 11.788 10.8464 11.7951C10.9826 11.8101 11.1035 11.8102 11.2018 11.8102C11.3002 11.8102 11.3759 11.8031 11.4292 11.8031C11.4824 11.796 11.5122 11.796 11.5122 11.796C11.5122 11.796 11.4815 11.796 11.4292 11.796C11.3759 11.796 11.3002 11.796 11.2018 11.7889C11.1035 11.7818 10.9826 11.7668 10.8464 11.7517C10.7102 11.7296 10.5586 11.7074 10.3927 11.6623C10.3097 11.6401 10.2258 11.618 10.1428 11.595C10.0598 11.5648 9.96867 11.5356 9.87756 11.5055C9.69624 11.4382 9.51401 11.3497 9.33269 11.2531C9.24158 11.2009 9.15137 11.1486 9.06748 11.0822C8.97637 11.0229 8.89337 10.9556 8.81038 10.8892C8.64349 10.7554 8.48472 10.5916 8.34851 10.4278C8.20508 10.2569 8.08329 10.078 7.97775 9.89202C7.8722 9.70605 7.78109 9.513 7.70532 9.31906C7.62954 9.12601 7.5691 8.94004 7.52399 8.75407C7.50866 8.7098 7.50144 8.66463 7.49332 8.62035C7.47799 8.57608 7.47077 8.53091 7.46265 8.48663C7.4401 8.39719 7.42476 8.31572 7.40943 8.23336C7.39409 8.15189 7.38688 8.06953 7.37154 7.99515C7.36432 7.92076 7.34899 7.84637 7.34087 7.77907C7.33365 7.71177 7.32553 7.65243 7.31832 7.5931C7.3111 7.53377 7.3111 7.48152 7.30298 7.42927C7.29577 7.33275 7.28765 7.25836 7.28765 7.20611C7.28765 7.15386 7.28043 7.12464 7.28043 7.12464C7.28043 7.12464 7.28043 7.15475 7.28043 7.20611C7.28043 7.23622 7.28043 7.26544 7.28043 7.30264C7.28043 7.32478 7.28043 7.33983 7.28043 7.36197C7.28043 7.38411 7.28043 7.40625 7.28043 7.42927C7.28043 7.48152 7.28043 7.53377 7.28043 7.5931C7.28043 7.65243 7.28765 7.71177 7.28765 7.78615C7.28765 7.85346 7.29486 7.92784 7.30298 8.00223C7.3102 8.07662 7.31832 8.15809 7.32553 8.24045C7.34809 8.40428 7.37876 8.59024 7.41665 8.77621C7.46175 8.96218 7.51497 9.1632 7.58353 9.35626C7.65931 9.55728 7.7423 9.75742 7.85597 9.95135C7.96151 10.1444 8.09051 10.3383 8.23394 10.5093C8.37738 10.6802 8.54426 10.844 8.71837 10.9857C8.89247 11.1274 9.08191 11.246 9.27045 11.3497C9.46891 11.4533 9.66557 11.5347 9.84689 11.5941ZM4.35313 4.57422C4.35313 4.49983 4.35313 4.43253 4.35313 4.3732C4.35313 4.32095 4.36035 4.27667 4.36035 4.24656C4.36035 4.21645 4.36757 4.20228 4.36757 4.20228C4.36757 4.20228 4.36757 4.21734 4.36035 4.24656C4.36035 4.26162 4.35313 4.27667 4.35313 4.29881C4.34592 4.32095 4.34592 4.34309 4.3378 4.3732C4.33058 4.43253 4.32246 4.49983 4.32246 4.57422C4.32246 4.64861 4.32246 4.73805 4.32968 4.83457C4.3369 4.9311 4.35223 5.02763 4.3829 5.13212C4.39824 5.18437 4.41358 5.23662 4.42801 5.2809C4.44334 5.33315 4.4659 5.38539 4.48845 5.42967C4.511 5.48192 4.53355 5.5262 4.56422 5.57845C4.58678 5.63069 4.61745 5.67497 4.64722 5.72014C4.70766 5.80958 4.77622 5.89902 4.84387 5.98049C4.91243 6.06196 4.98731 6.13635 5.06308 6.20365C5.10097 6.24085 5.13886 6.27096 5.17675 6.30018C5.21463 6.33029 5.25252 6.35951 5.29041 6.38962C5.36619 6.44895 5.44918 6.49412 5.51774 6.5384C5.59351 6.58267 5.66117 6.61987 5.72973 6.65706C5.79829 6.69426 5.85873 6.72436 5.91105 6.75359C5.96337 6.78281 6.00938 6.80584 6.04727 6.82798C6.08516 6.85011 6.11583 6.86517 6.13838 6.88022C6.16093 6.89528 6.16905 6.89528 6.16905 6.89528C6.16905 6.89528 6.16183 6.88819 6.13838 6.87314C6.12304 6.85809 6.09327 6.83595 6.05539 6.81381C6.0175 6.7837 5.97961 6.75447 5.92639 6.72437C5.87316 6.68717 5.82084 6.64998 5.75228 6.61278C5.69184 6.57559 5.62328 6.53131 5.54751 6.47906C5.51052 6.45604 5.47263 6.42593 5.44286 6.40379C5.40498 6.37368 5.36709 6.35154 5.3292 6.32232C5.29131 6.29221 5.25342 6.26299 5.21554 6.23288C5.2002 6.21782 5.17765 6.20277 5.16231 6.18063C5.14698 6.16557 5.12442 6.15052 5.10909 6.12838C5.03331 6.06108 4.96566 5.98669 4.8971 5.90522C4.82854 5.82375 4.76088 5.74139 4.70766 5.65195C4.67699 5.60767 4.64722 5.56251 4.62467 5.51823C4.60211 5.47395 4.57144 5.42879 4.54889 5.37654C4.50378 5.28001 4.4659 5.18349 4.43523 5.08607C4.40455 4.98955 4.382 4.89302 4.37479 4.80358C4.36035 4.73805 4.35313 4.64861 4.35313 4.57422ZM8.55328 6.98383C8.53073 6.99092 8.52261 6.99889 8.52261 6.99889C8.52261 6.99889 8.53073 6.99092 8.55328 6.98383C8.57584 6.97675 8.60651 6.96878 8.64439 6.95373C8.68228 6.93867 8.73551 6.92362 8.78783 6.90148C8.84105 6.88642 8.90871 6.86428 8.97727 6.84214C9.04492 6.82001 9.1207 6.79787 9.19648 6.77484C9.27225 6.7527 9.35525 6.72259 9.43824 6.69337C9.48334 6.67832 9.52123 6.66326 9.56724 6.64909C9.61234 6.63404 9.65023 6.61898 9.69624 6.59684C9.77923 6.55965 9.87034 6.52246 9.95333 6.47818C10.0363 6.4339 10.1202 6.38874 10.1951 6.34446C10.233 6.32232 10.2709 6.30018 10.3088 6.27007C10.3466 6.24793 10.3773 6.21782 10.4071 6.19568C10.4378 6.17354 10.4675 6.14344 10.4982 6.11421C10.5289 6.0841 10.5514 6.06196 10.5812 6.03274C10.6344 5.98049 10.6723 5.92824 10.7102 5.87688C10.7481 5.82463 10.7706 5.78035 10.7932 5.73519C10.8157 5.69091 10.8311 5.65372 10.8383 5.62361C10.8455 5.60856 10.8455 5.5935 10.8536 5.57933C10.8536 5.56428 10.8608 5.55719 10.8608 5.54922C10.8608 5.53417 10.8681 5.51911 10.8681 5.51911C10.8681 5.51911 10.8681 5.5262 10.8608 5.54125C10.8536 5.55631 10.8455 5.57845 10.8302 5.61564C10.8148 5.64575 10.8004 5.68294 10.7769 5.72722C10.7544 5.7715 10.7237 5.81666 10.6858 5.86094C10.6479 5.90522 10.6028 5.95747 10.5568 6.00972C10.5036 6.06196 10.4432 6.10624 10.3827 6.15849C10.353 6.18063 10.3142 6.20277 10.2844 6.23288C10.2465 6.25502 10.2167 6.27716 10.1789 6.30018C10.1031 6.34446 10.0273 6.38962 9.94431 6.42682C9.86132 6.46401 9.77742 6.50829 9.69443 6.54548C9.67188 6.55257 9.65654 6.56054 9.63399 6.57559C9.61144 6.58267 9.58889 6.59064 9.57355 6.6057C9.52845 6.62075 9.49056 6.63581 9.45267 6.65795C9.41478 6.673 9.36968 6.68806 9.33179 6.70223C9.2939 6.71728 9.25601 6.73234 9.21813 6.7465C9.14235 6.77661 9.06658 6.79875 8.99892 6.82089C8.93036 6.84303 8.86992 6.87314 8.8176 6.89528C8.76437 6.91742 8.71927 6.93956 8.68138 6.95461C8.59839 6.95373 8.56862 6.96878 8.55328 6.98383Z" fill="#2E4EBC"/>
</svg>
