<svg width="32" height="32" viewBox="0 0 32 32" fill="none" xmlns="http://www.w3.org/2000/svg">
<path d="M2.00011 16.0788C2.03078 23.7974 8.40317 30.03 16.2586 29.9999C17.8174 29.9999 19.3311 29.7325 20.724 29.2702C16.955 28.1402 15.0318 25.4481 14.0791 23.4095C13.9583 23.1421 13.8518 22.8888 13.7616 22.6515C13.4585 21.7447 13.0959 20.0338 13.3827 17.4019C13.3972 17.2389 13.4278 17.0742 13.4441 16.9113C13.4441 16.8369 13.4585 16.7625 13.4585 16.7023C13.4585 16.6279 13.4585 16.5677 13.4585 16.4933C13.4585 16.3587 13.4585 16.2259 13.4441 16.0912C13.3827 15.5564 13.1572 15.0658 12.6123 14.5592C12.0819 14.0828 11.4919 13.7569 10.8875 13.3991C10.3571 13.0874 9.91868 12.7456 9.57048 12.3737C9.22227 12.0159 8.96427 11.6457 8.76761 11.2578C8.3743 10.514 8.26785 9.7701 8.31296 9.11656C8.34363 8.47718 8.52405 7.92636 8.70627 7.52432C8.79648 7.33126 8.88849 7.15238 8.94803 7.03372C8.96246 7.00361 8.9787 6.9735 8.99314 6.94516C8.99314 6.93099 9.00757 6.91505 9.00757 6.91505C9.00757 6.90088 9.022 6.88494 9.022 6.88494C9.022 6.88494 9.022 6.87077 9.03644 6.87077C9.03644 6.87077 9.03644 6.8566 9.05087 6.8566C9.05087 6.84243 9.0653 6.84243 9.0653 6.82649V6.84066C9.0653 6.85483 9.05087 6.88494 9.03463 6.91505C9.0202 6.97527 8.98953 7.04966 8.97329 7.13821C8.92819 7.3171 8.91195 7.54026 8.95886 7.8077C9.04907 8.32841 9.41351 8.95361 10.4726 9.45838C10.4726 9.45838 10.4726 9.80021 10.4726 10.142C10.4726 10.4839 10.487 10.8115 10.487 10.8115C10.487 10.8115 10.5321 10.4998 10.5772 10.1863C10.6223 9.8746 10.6837 9.56111 10.6837 9.56111C10.7901 9.60539 10.911 9.64967 11.0319 9.69572C11.1527 9.73999 11.243 9.8746 11.243 10.0375V10.3794C11.243 10.3794 11.2736 10.2306 11.2881 10.0818C11.3187 9.93305 11.3332 9.78427 11.3332 9.78427C11.454 9.81438 11.5749 9.85866 11.6958 9.88877C12.8162 10.1863 13.5577 10.514 14.0268 10.8257C14.4959 11.1232 14.7232 11.4208 14.8297 11.628C15.0408 11.3606 15.5405 11.0489 16.6465 10.9745C16.6465 10.9745 16.6158 11.1374 16.6014 11.3021C16.5707 11.4651 16.5563 11.6298 16.5563 11.6298C16.5563 11.6298 16.6014 11.5253 16.6321 11.4208C16.6772 11.3163 16.7078 11.2118 16.7078 11.2118C16.7692 11.063 16.9045 10.9745 17.0705 10.9585C17.1607 10.9585 17.2671 10.9585 17.3736 10.9585C17.3736 10.9585 17.3285 11.1959 17.2978 11.435C17.2834 11.5536 17.2671 11.6723 17.2527 11.7626C17.2383 11.8512 17.2383 11.9114 17.2383 11.9114C17.2383 11.9114 17.2527 11.8512 17.2996 11.7626C17.3303 11.6741 17.3754 11.5536 17.4205 11.435C17.5107 11.1976 17.6172 10.9585 17.6172 10.9585C17.8445 10.9727 18.0862 10.9886 18.3442 11.0187C19.268 11.1073 19.9482 11.0931 20.4479 11.0329C20.9477 10.9727 21.2652 10.854 21.4763 10.7354C21.6874 10.6167 21.7794 10.4821 21.8245 10.4077C21.8245 10.3935 21.839 10.3935 21.839 10.3776C21.839 10.3776 21.839 10.3776 21.839 10.3634C21.839 10.3493 21.8534 10.3192 21.839 10.3032C21.839 10.3032 21.8534 10.3032 21.8696 10.3333C21.8841 10.3475 21.8841 10.3634 21.9003 10.3935C21.9147 10.4378 21.931 10.5122 21.9454 10.5866C21.9761 10.8098 21.9598 11.1374 21.8101 11.4934C21.6585 11.8512 21.3861 12.2373 20.8557 12.6234C20.5977 12.8164 20.2801 13.0095 19.8724 13.1884C19.4791 13.3814 19.01 13.5603 18.4489 13.7392C17.8282 13.9482 17.2076 14.1554 16.6627 14.5575C16.1034 14.9595 15.9068 15.42 15.9068 15.8964C15.9068 16.0452 15.9212 16.1798 15.9375 16.3126C15.9681 16.4472 15.9988 16.5659 16.0277 16.6987C16.2388 17.4267 16.7241 18.0962 17.1932 18.6771C17.8589 19.4953 18.5553 20.1648 19.342 20.6554C19.342 20.6554 19.3871 20.6855 19.4791 20.7298C19.7822 20.9087 20.0853 21.0415 20.4028 21.1602C21.4781 21.5924 23.2336 22.0529 25.0955 21.5623C25.1099 21.5623 25.1099 21.5623 25.1262 21.5481C25.4888 21.4436 29.016 20.388 29.8495 15.8964C30.2573 13.6807 29.8189 11.419 28.7454 9.4265C26.4288 5.15809 21.9039 2.19854 16.7277 2.00549C8.63049 1.78587 1.96943 8.1814 2.00011 16.0788ZM19.6938 23.1881C20.0727 23.3228 20.4209 23.4113 20.7691 23.4715C21.1028 23.5317 21.4204 23.576 21.6928 23.5902C21.9652 23.6203 22.207 23.6203 22.4037 23.6203C22.6003 23.6203 22.7519 23.6061 22.8583 23.6061C22.9648 23.592 23.0243 23.592 23.0243 23.592C23.0243 23.592 22.963 23.592 22.8583 23.592C22.7519 23.592 22.6003 23.592 22.4037 23.5778C22.207 23.5636 21.9652 23.5335 21.6928 23.5034C21.4204 23.4591 21.1173 23.4148 20.7853 23.3245C20.6193 23.2802 20.4515 23.236 20.2855 23.1899C20.1196 23.1297 19.9373 23.0713 19.7551 23.011C19.3925 22.8764 19.028 22.6993 18.6654 22.5063C18.4832 22.4018 18.3027 22.2973 18.135 22.1644C17.9527 22.0458 17.7867 21.9112 17.6208 21.7783C17.287 21.5109 16.9694 21.1832 16.697 20.8556C16.4102 20.5137 16.1666 20.156 15.9555 19.784C15.7444 19.4121 15.5622 19.026 15.4106 18.6381C15.2591 18.252 15.1382 17.8801 15.048 17.5081C15.0173 17.4196 15.0029 17.3293 14.9866 17.2407C14.956 17.1522 14.9415 17.0618 14.9253 16.9733C14.8802 16.7944 14.8495 16.6314 14.8189 16.4667C14.7882 16.3038 14.7738 16.1391 14.7431 15.9903C14.7286 15.8415 14.698 15.6927 14.6817 15.5581C14.6673 15.4235 14.6511 15.3049 14.6366 15.1862C14.6222 15.0675 14.6222 14.963 14.606 14.8585C14.5915 14.6655 14.5753 14.5167 14.5753 14.4122C14.5753 14.3077 14.5609 14.2493 14.5609 14.2493C14.5609 14.2493 14.5609 14.3095 14.5609 14.4122C14.5609 14.4724 14.5609 14.5309 14.5609 14.6053C14.5609 14.6496 14.5609 14.6797 14.5609 14.7239C14.5609 14.7682 14.5609 14.8125 14.5609 14.8585C14.5609 14.963 14.5609 15.0675 14.5609 15.1862C14.5609 15.3049 14.5753 15.4235 14.5753 15.5723C14.5753 15.7069 14.5897 15.8557 14.606 16.0045C14.6204 16.1532 14.6366 16.3162 14.6511 16.4809C14.6962 16.8086 14.7575 17.1805 14.8333 17.5524C14.9235 17.9244 15.0299 18.3264 15.1671 18.7125C15.3186 19.1146 15.4846 19.5148 15.7119 19.9027C15.923 20.2888 16.181 20.6767 16.4679 21.0185C16.7548 21.3603 17.0885 21.688 17.4367 21.9714C17.7849 22.2548 18.1638 22.4921 18.5409 22.6993C18.9378 22.9065 19.3311 23.0695 19.6938 23.1881ZM8.70627 9.14844C8.70627 8.99966 8.70627 8.86506 8.70627 8.74639C8.70627 8.6419 8.7207 8.55334 8.7207 8.49312C8.7207 8.4329 8.73514 8.40457 8.73514 8.40457C8.73514 8.40457 8.73514 8.43467 8.7207 8.49312C8.7207 8.52323 8.70627 8.55334 8.70627 8.59762C8.69184 8.6419 8.69184 8.68617 8.6756 8.74639C8.66117 8.86506 8.64493 8.99966 8.64493 9.14844C8.64493 9.29721 8.64493 9.4761 8.65936 9.66915C8.67379 9.8622 8.70447 10.0553 8.76581 10.2642C8.79648 10.3687 8.82715 10.4732 8.85602 10.5618C8.88669 10.6663 8.93179 10.7708 8.9769 10.8593C9.022 10.9638 9.06711 11.0524 9.12845 11.1569C9.17355 11.2614 9.2349 11.3499 9.29444 11.4403C9.41532 11.6192 9.55243 11.798 9.68775 11.961C9.82487 12.1239 9.97461 12.2727 10.1262 12.4073C10.2019 12.4817 10.2777 12.5419 10.3535 12.6004C10.4293 12.6606 10.505 12.719 10.5808 12.7792C10.7324 12.8979 10.8984 12.9882 11.0355 13.0768C11.187 13.1653 11.3223 13.2397 11.4595 13.3141C11.5966 13.3885 11.7175 13.4487 11.8221 13.5072C11.9267 13.5656 12.0188 13.6117 12.0945 13.656C12.1703 13.7002 12.2317 13.7303 12.2768 13.7604C12.3219 13.7906 12.3381 13.7906 12.3381 13.7906C12.3381 13.7906 12.3237 13.7764 12.2768 13.7463C12.2461 13.7162 12.1865 13.6719 12.1108 13.6276C12.035 13.5674 11.9592 13.5089 11.8528 13.4487C11.7463 13.3743 11.6417 13.3 11.5046 13.2256C11.3837 13.1512 11.2466 13.0626 11.095 12.9581C11.021 12.9121 10.9453 12.8519 10.8857 12.8076C10.81 12.7474 10.7342 12.7031 10.6584 12.6446C10.5826 12.5844 10.5068 12.526 10.4311 12.4658C10.4004 12.4356 10.3553 12.4055 10.3246 12.3613C10.294 12.3311 10.2488 12.301 10.2182 12.2568C10.0666 12.1222 9.93131 11.9734 9.7942 11.8104C9.65708 11.6475 9.52176 11.4828 9.41532 11.3039C9.35397 11.2153 9.29444 11.125 9.24933 11.0365C9.20423 10.9479 9.14288 10.8576 9.09778 10.7531C9.00757 10.56 8.93179 10.367 8.87045 10.1721C8.80911 9.9791 8.764 9.78604 8.74957 9.60716C8.7207 9.4761 8.70627 9.29721 8.70627 9.14844ZM17.1066 13.9677C17.0615 13.9818 17.0452 13.9978 17.0452 13.9978C17.0452 13.9978 17.0615 13.9818 17.1066 13.9677C17.1517 13.9535 17.213 13.9376 17.2888 13.9075C17.3646 13.8773 17.471 13.8472 17.5757 13.803C17.6821 13.7728 17.8174 13.7286 17.9545 13.6843C18.0898 13.64 18.2414 13.5957 18.393 13.5497C18.5445 13.5054 18.7105 13.4452 18.8765 13.3867C18.9667 13.3566 19.0425 13.3265 19.1345 13.2982C19.2247 13.2681 19.3005 13.238 19.3925 13.1937C19.5585 13.1193 19.7407 13.0449 19.9067 12.9564C20.0727 12.8678 20.2404 12.7775 20.3902 12.6889C20.466 12.6446 20.5417 12.6004 20.6175 12.5401C20.6933 12.4959 20.7546 12.4356 20.8142 12.3914C20.8755 12.3471 20.9351 12.2869 20.9964 12.2284C21.0577 12.1682 21.1028 12.1239 21.1624 12.0655C21.2688 11.961 21.3446 11.8565 21.4204 11.7538C21.4962 11.6493 21.5413 11.5607 21.5864 11.4704C21.6315 11.3818 21.6621 11.3074 21.6766 11.2472C21.691 11.2171 21.691 11.187 21.7072 11.1587C21.7072 11.1286 21.7217 11.1144 21.7217 11.0984C21.7217 11.0683 21.7361 11.0382 21.7361 11.0382C21.7361 11.0382 21.7361 11.0524 21.7217 11.0825C21.7072 11.1126 21.691 11.1569 21.6603 11.2313C21.6297 11.2915 21.6008 11.3659 21.5539 11.4544C21.5088 11.543 21.4474 11.6333 21.3717 11.7219C21.2959 11.8104 21.2057 11.9149 21.1137 12.0194C21.0072 12.1239 20.8863 12.2125 20.7655 12.317C20.7059 12.3613 20.6283 12.4055 20.5688 12.4658C20.493 12.51 20.4335 12.5543 20.3577 12.6004C20.2062 12.6889 20.0546 12.7792 19.8886 12.8536C19.7226 12.928 19.5548 13.0166 19.3889 13.091C19.3438 13.1051 19.3131 13.1211 19.268 13.1512C19.2229 13.1653 19.1778 13.1813 19.1471 13.2114C19.0569 13.2415 18.9811 13.2716 18.9053 13.3159C18.8296 13.346 18.7394 13.3761 18.6636 13.4045C18.5878 13.4346 18.512 13.4647 18.4363 13.493C18.2847 13.5532 18.1332 13.5975 17.9978 13.6418C17.8607 13.6861 17.7398 13.7463 17.6352 13.7906C17.5287 13.8348 17.4385 13.8791 17.3628 13.9092C17.1968 13.9075 17.1372 13.9376 17.1066 13.9677Z" fill="#2E4EBC"/>
</svg>
