<svg width="512" height="512" viewBox="0 0 512 512" fill="none" xmlns="http://www.w3.org/2000/svg">
<path d="M31.0017 257.787C31.4957 383.765 134.137 485.49 260.665 484.998C285.773 484.998 310.155 480.633 332.59 473.088C271.883 454.646 240.904 410.707 225.56 377.434C223.613 373.069 221.899 368.935 220.446 365.062C215.564 350.261 209.723 322.337 214.343 279.381C214.576 276.721 215.07 274.033 215.331 271.373C215.331 270.159 215.564 268.945 215.564 267.962C215.564 266.748 215.564 265.765 215.564 264.551C215.564 262.354 215.564 260.186 215.331 257.989C214.343 249.259 210.711 241.252 201.934 232.984C193.391 225.208 183.888 219.889 174.153 214.05C165.609 208.963 158.547 203.383 152.939 197.313C147.33 191.474 143.174 185.432 140.007 179.101C133.672 166.96 131.957 154.819 132.684 144.152C133.178 133.717 136.084 124.727 139.019 118.165C140.472 115.014 141.954 112.094 142.913 110.157C143.145 109.666 143.407 109.175 143.639 108.712C143.639 108.481 143.872 108.221 143.872 108.221C143.872 107.989 144.104 107.729 144.104 107.729C144.104 107.729 144.104 107.498 144.337 107.498C144.337 107.498 144.337 107.267 144.569 107.267C144.569 107.035 144.802 107.035 144.802 106.775V107.007C144.802 107.238 144.569 107.729 144.308 108.221C144.075 109.203 143.581 110.418 143.32 111.863C142.593 114.783 142.332 118.425 143.087 122.79C144.54 131.289 150.41 141.493 167.469 149.731C167.469 149.731 167.469 155.311 167.469 160.89C167.469 166.469 167.701 171.817 167.701 171.817C167.701 171.817 168.428 166.729 169.154 161.612C169.881 156.525 170.869 151.408 170.869 151.408C172.583 152.131 174.531 152.853 176.478 153.605C178.425 154.328 179.878 156.525 179.878 159.184V164.763C179.878 164.763 180.372 162.335 180.604 159.907C181.098 157.479 181.331 155.05 181.331 155.05C183.278 155.542 185.225 156.265 187.172 156.756C205.218 161.612 217.162 166.96 224.718 172.048C232.273 176.904 235.935 181.761 237.65 185.143C241.05 180.778 249.099 175.69 266.913 174.476C266.913 174.476 266.419 177.136 266.187 179.824C265.693 182.483 265.46 185.172 265.46 185.172C265.46 185.172 266.187 183.466 266.681 181.761C267.407 180.055 267.901 178.35 267.901 178.35C268.889 175.922 271.069 174.476 273.742 174.216C275.195 174.216 276.91 174.216 278.625 174.216C278.625 174.216 277.898 178.09 277.404 181.992C277.172 183.929 276.91 185.866 276.678 187.34C276.445 188.785 276.445 189.768 276.445 189.768C276.445 189.768 276.678 188.785 277.433 187.34C277.927 185.895 278.654 183.929 279.38 181.992C280.833 178.118 282.548 174.216 282.548 174.216C286.209 174.447 290.103 174.707 294.259 175.199C309.138 176.644 320.094 176.413 328.143 175.43C336.193 174.447 341.308 172.51 344.708 170.574C348.108 168.637 349.59 166.44 350.316 165.226C350.316 164.995 350.549 164.995 350.549 164.734C350.549 164.734 350.549 164.734 350.549 164.503C350.549 164.272 350.781 163.78 350.549 163.52C350.549 163.52 350.781 163.52 351.043 164.012C351.275 164.243 351.275 164.503 351.537 164.995C351.769 165.717 352.031 166.931 352.263 168.145C352.757 171.788 352.496 177.136 350.084 182.946C347.643 188.785 343.255 195.087 334.711 201.389C330.555 204.54 325.441 207.691 318.873 210.61C312.538 213.761 304.982 216.681 295.944 219.6C285.948 223.011 275.951 226.394 267.175 232.956C258.166 239.518 254.999 247.033 254.999 254.81C254.999 257.238 255.231 259.435 255.493 261.603C255.987 263.8 256.481 265.736 256.946 267.905C260.346 279.785 268.163 290.712 275.719 300.194C286.442 313.549 297.659 324.476 310.329 332.483C310.329 332.483 311.056 332.975 312.538 333.698C317.42 336.617 322.302 338.785 327.417 340.722C344.737 347.775 373.012 355.291 403.003 347.284C403.235 347.284 403.235 347.284 403.497 347.053C409.338 345.347 466.151 328.118 479.577 254.81C486.144 218.646 479.083 181.732 461.792 149.211C424.478 79.5446 351.595 31.2405 268.221 28.0896C137.798 24.5051 30.5077 128.889 31.0017 257.787ZM315.996 373.821C322.099 376.018 327.707 377.463 333.316 378.446C338.692 379.429 343.807 380.151 348.195 380.383C352.583 380.874 356.477 380.874 359.645 380.874C362.812 380.874 365.253 380.643 366.968 380.643C368.682 380.412 369.641 380.412 369.641 380.412C369.641 380.412 368.653 380.412 366.968 380.412C365.253 380.412 362.812 380.412 359.645 380.18C356.477 379.949 352.583 379.458 348.195 378.966C343.807 378.244 338.925 377.521 333.578 376.047C330.904 375.324 328.201 374.601 325.528 373.85C322.854 372.867 319.919 371.913 316.984 370.93C311.143 368.733 305.273 365.842 299.432 362.691C296.497 360.986 293.591 359.28 290.888 357.112C287.953 355.176 285.279 352.979 282.606 350.811C277.23 346.446 272.115 341.098 267.727 335.75C263.106 330.171 259.183 324.332 255.783 318.261C252.383 312.19 249.448 305.889 247.007 299.558C244.566 293.256 242.619 287.186 241.166 281.115C240.672 279.67 240.439 278.195 240.178 276.75C239.684 275.305 239.451 273.83 239.19 272.385C238.463 269.465 237.969 266.806 237.475 264.118C236.981 261.458 236.749 258.77 236.255 256.342C236.022 253.913 235.528 251.485 235.267 249.288C235.034 247.091 234.773 245.154 234.54 243.218C234.308 241.281 234.308 239.575 234.046 237.87C233.814 234.719 233.552 232.291 233.552 230.585C233.552 228.88 233.32 227.926 233.32 227.926C233.32 227.926 233.32 228.909 233.32 230.585C233.32 231.568 233.32 232.522 233.32 233.736C233.32 234.459 233.32 234.95 233.32 235.673C233.32 236.396 233.32 237.118 233.32 237.87C233.32 239.575 233.32 241.281 233.32 243.218C233.32 245.154 233.552 247.091 233.552 249.519C233.552 251.716 233.785 254.145 234.046 256.573C234.279 259.001 234.54 261.661 234.773 264.349C235.499 269.697 236.487 275.767 237.708 281.838C239.161 287.908 240.875 294.47 243.084 300.772C245.525 307.334 248.198 313.867 251.86 320.198C255.26 326.5 259.416 332.83 264.036 338.409C268.657 343.988 274.033 349.336 279.642 353.961C285.25 358.587 291.353 362.46 297.427 365.842C303.82 369.225 310.155 371.884 315.996 373.821ZM139.019 144.673C139.019 142.245 139.019 140.048 139.019 138.111C139.019 136.405 139.251 134.96 139.251 133.977C139.251 132.994 139.484 132.532 139.484 132.532C139.484 132.532 139.484 133.023 139.251 133.977C139.251 134.468 139.019 134.96 139.019 135.683C138.786 136.405 138.786 137.128 138.525 138.111C138.292 140.048 138.031 142.245 138.031 144.673C138.031 147.101 138.031 150.021 138.263 153.171C138.496 156.322 138.99 159.473 139.978 162.884C140.472 164.59 140.966 166.295 141.431 167.741C141.925 169.446 142.651 171.152 143.378 172.597C144.104 174.303 144.831 175.748 145.819 177.454C146.545 179.159 147.534 180.604 148.493 182.079C150.44 184.998 152.648 187.918 154.828 190.577C157.036 193.237 159.448 195.665 161.889 197.862C163.11 199.076 164.33 200.059 165.551 201.013C166.771 201.996 167.992 202.95 169.213 203.933C171.654 205.869 174.327 207.344 176.536 208.789C178.977 210.234 181.156 211.449 183.365 212.663C185.573 213.877 187.52 214.86 189.206 215.814C190.891 216.768 192.374 217.519 193.594 218.242C194.815 218.964 195.803 219.456 196.529 219.947C197.256 220.439 197.517 220.439 197.517 220.439C197.517 220.439 197.285 220.207 196.529 219.716C196.035 219.225 195.076 218.502 193.856 217.779C192.635 216.796 191.415 215.842 189.7 214.86C187.985 213.646 186.3 212.431 184.091 211.217C182.144 210.003 179.936 208.558 177.495 206.852C176.303 206.101 175.083 205.118 174.124 204.395C172.903 203.412 171.683 202.69 170.462 201.736C169.242 200.753 168.021 199.799 166.8 198.816C166.306 198.325 165.58 197.833 165.086 197.111C164.592 196.619 163.865 196.128 163.371 195.405C160.93 193.208 158.751 190.78 156.542 188.12C154.334 185.461 152.154 182.773 150.44 179.853C149.451 178.408 148.493 176.933 147.766 175.488C147.039 174.043 146.051 172.568 145.325 170.863C143.872 167.712 142.651 164.561 141.663 161.381C140.675 158.23 139.949 155.079 139.716 152.16C139.251 150.021 139.019 147.101 139.019 144.673ZM274.324 223.329C273.597 223.561 273.336 223.821 273.336 223.821C273.336 223.821 273.597 223.561 274.324 223.329C275.05 223.098 276.038 222.838 277.259 222.347C278.479 221.855 280.194 221.364 281.879 220.641C283.594 220.15 285.773 219.427 287.982 218.704C290.161 217.982 292.603 217.259 295.044 216.507C297.485 215.785 300.158 214.802 302.832 213.848C304.285 213.356 305.505 212.865 306.987 212.402C308.44 211.911 309.661 211.42 311.143 210.697C313.817 209.483 316.752 208.269 319.425 206.823C322.099 205.378 324.801 203.904 327.213 202.458C328.434 201.736 329.654 201.013 330.875 200.03C332.096 199.307 333.084 198.325 334.043 197.602C335.031 196.879 335.99 195.896 336.978 194.942C337.966 193.96 338.692 193.237 339.651 192.283C341.366 190.577 342.586 188.872 343.807 187.195C345.027 185.49 345.754 184.044 346.48 182.57C347.207 181.125 347.701 179.911 347.933 178.928C348.166 178.436 348.166 177.945 348.427 177.482C348.427 176.991 348.66 176.76 348.66 176.5C348.66 176.008 348.892 175.517 348.892 175.517C348.892 175.517 348.892 175.748 348.66 176.239C348.427 176.731 348.166 177.454 347.672 178.668C347.178 179.651 346.713 180.865 345.957 182.31C345.231 183.755 344.243 185.23 343.022 186.675C341.802 188.12 340.349 189.826 338.867 191.531C337.152 193.237 335.205 194.682 333.258 196.388C332.299 197.111 331.049 197.833 330.09 198.816C328.87 199.539 327.911 200.261 326.69 201.013C324.249 202.458 321.808 203.933 319.135 205.147C316.461 206.361 313.758 207.806 311.085 209.02C310.358 209.252 309.864 209.512 309.138 210.003C308.411 210.234 307.685 210.495 307.191 210.986C305.738 211.477 304.517 211.969 303.297 212.692C302.076 213.183 300.623 213.674 299.403 214.137C298.182 214.628 296.962 215.12 295.741 215.582C293.3 216.565 290.859 217.288 288.679 218.011C286.471 218.733 284.524 219.716 282.838 220.439C281.124 221.161 279.671 221.884 278.45 222.376C275.777 222.347 274.818 222.838 274.324 223.329Z" fill="#2E4EBC"/>
</svg>
